<svg id="Layer_1" xmlns="http://www.w3.org/2000/svg" viewBox="0 0 33 33"><style>.st0{fill:#f64b30}</style><title>Group 5</title><path id="Fill-4" class="st0" d="M18.5 14.5c0 1.4-1.1 2.6-2.6 2.6-1.4 0-2.6-1.1-2.6-2.6 0-1.4 1.1-2.6 2.6-2.6s2.6 1.1 2.6 2.6"/><path id="Fill-6" class="st0" d="M27.4 14.5c0 1.4-1.1 2.6-2.6 2.6-1.4 0-2.6-1.1-2.6-2.6 0-1.4 1.1-2.6 2.6-2.6s2.6 1.1 2.6 2.6"/><path class="st0" d="M26 0H7.8C3.8 0 0 3.3 0 7.3v18.2c0 4 3.8 7.3 7.8 7.3H26c4 0 6.7-3.3 6.7-7.3V7.3C32.7 3.3 30 0 26 0zm-7.7 28.4c-3.6.1-6.6-2.6-7.3-6.2 1.9 1.8 4.8 2.9 8 2.9 2.2 0 4.3-.6 5.9-1.6-1 2.8-3.6 4.8-6.6 4.9zm5.5-9.7c-1.7 0-3.3-.9-4.2-2.2-1 1.3-2.5 2.2-4.2 2.2-2.9 0-5.2-2.3-5.2-5.2 0-2.9 2.3-5.2 5.2-5.2 1.7 0 3.3.8 4.2 2.2 1-1.3 2.5-2.2 4.2-2.2 2.9 0 5.2 2.3 5.2 5.2 0 2.8-2.3 5.2-5.2 5.2z"/></svg>