<?xml version="1.0" encoding="utf-8"?>
<!-- Generator: Adobe Illustrator 19.2.1, SVG Export Plug-In . SVG Version: 6.00 Build 0)  -->
<svg version="1.1" id="Layer_1" xmlns="http://www.w3.org/2000/svg" xmlns:xlink="http://www.w3.org/1999/xlink" x="0px" y="0px"
	 viewBox="0 0 33 33" style="enable-background:new 0 0 33 33;" xml:space="preserve">
<style type="text/css">
	.st0{fill:#F64B30;}
</style>
<title>Group 5</title>
<desc>Created with Sketch.</desc>
<path id="Fill-4" class="st0" d="M18.5,14.5c0,1.4-1.1,2.6-2.6,2.6c-1.4,0-2.6-1.1-2.6-2.6c0-1.4,1.1-2.6,2.6-2.6
	C17.4,11.9,18.5,13,18.5,14.5"/>
<path id="Fill-6" class="st0" d="M27.4,14.5c0,1.4-1.1,2.6-2.6,2.6c-1.4,0-2.6-1.1-2.6-2.6c0-1.4,1.1-2.6,2.6-2.6
	C26.3,11.9,27.4,13,27.4,14.5"/>
<path class="st0" d="M26,0H7.8C3.8,0,0,3.3,0,7.3v18.2c0,4,3.8,7.3,7.8,7.3H26c4,0,6.7-3.3,6.7-7.3V7.3C32.7,3.3,30,0,26,0z
	 M18.3,28.4c-3.6,0.1-6.6-2.6-7.3-6.2c1.9,1.8,4.8,2.9,8,2.9c2.2,0,4.3-0.6,5.9-1.6C23.9,26.3,21.3,28.3,18.3,28.4z M23.8,18.7
	c-1.7,0-3.3-0.9-4.2-2.2c-1,1.3-2.5,2.2-4.2,2.2c-2.9,0-5.2-2.3-5.2-5.2c0-2.9,2.3-5.2,5.2-5.2c1.7,0,3.3,0.8,4.2,2.2
	c1-1.3,2.5-2.2,4.2-2.2c2.9,0,5.2,2.3,5.2,5.2C29,16.3,26.7,18.7,23.8,18.7z"/>
</svg>
